<svg width="17" height="15" viewBox="0 0 17 15" fill="none" xmlns="http://www.w3.org/2000/svg">
<path fill-rule="evenodd" clip-rule="evenodd" d="M-3.14722e-07 7.20001C-3.36449e-07 6.70295 0.402943 6.30001 0.9 6.30001L13.6655 6.30001L8.6762 1.54876C8.31791 1.20424 8.30674 0.634504 8.65125 0.276209C8.99576 -0.0820849 9.5655 -0.0932566 9.9238 0.251257L16.5238 6.55126C16.7003 6.72094 16.8 6.95519 16.8 7.20001C16.8 7.44482 16.7003 7.67907 16.5238 7.84876L9.9238 14.1488C9.5655 14.4933 8.99576 14.4821 8.65125 14.1238C8.30674 13.7655 8.31791 13.1958 8.6762 12.8513L13.6655 8.10001L0.9 8.10001C0.402943 8.10001 -2.92995e-07 7.69706 -3.14722e-07 7.20001Z" fill="white"/>
</svg>
