<svg width="22" height="20" viewBox="0 0 22 20" fill="none" xmlns="http://www.w3.org/2000/svg">
<path d="M1 1H2.38568C2.89537 1 3.34138 1.34265 3.4727 1.83513L3.8559 3.27209M6.25 12.25C4.59315 12.25 3.25 13.5931 3.25 15.25H19M6.25 12.25H17.4683C18.5894 9.94936 19.5677 7.56635 20.3917 5.1125C15.63 3.89646 10.6405 3.25 5.5 3.25C4.95021 3.25 4.40214 3.2574 3.8559 3.27209M6.25 12.25L3.8559 3.27209M4.75 18.25C4.75 18.6642 4.41421 19 4 19C3.58579 19 3.25 18.6642 3.25 18.25C3.25 17.8358 3.58579 17.5 4 17.5C4.41421 17.5 4.75 17.8358 4.75 18.25ZM17.5 18.25C17.5 18.6642 17.1642 19 16.75 19C16.3358 19 16 18.6642 16 18.25C16 17.8358 16.3358 17.5 16.75 17.5C17.1642 17.5 17.5 17.8358 17.5 18.25Z" stroke="white" stroke-width="1.5" stroke-linecap="round" stroke-linejoin="round"/>
</svg>
