<svg width="18" height="20" viewBox="0 0 18 20" fill="none" xmlns="http://www.w3.org/2000/svg">
<path fill-rule="evenodd" clip-rule="evenodd" d="M3 1.5C2.17157 1.5 1.5 2.17157 1.5 3L1.5 16.5C1.5 17.3284 2.17157 18 3 18H9C9.82843 18 10.5 17.3284 10.5 16.5V12.75C10.5 12.3358 10.8358 12 11.25 12C11.6642 12 12 12.3358 12 12.75V16.5C12 18.1569 10.6569 19.5 9 19.5H3C1.34315 19.5 -8.9407e-08 18.1569 0 16.5L5.81145e-07 3C6.70552e-07 1.34315 1.34315 -8.9407e-08 3 0L9 2.68221e-07C10.6569 3.12924e-07 12 1.34315 12 3V6.75C12 7.16421 11.6642 7.5 11.25 7.5C10.8358 7.5 10.5 7.16421 10.5 6.75V3C10.5 2.17157 9.82843 1.5 9 1.5L3 1.5ZM13.7197 6.21967C14.0126 5.92678 14.4874 5.92678 14.7803 6.21967L17.7803 9.21967C18.0732 9.51257 18.0732 9.98744 17.7803 10.2803L14.7803 13.2803C14.4874 13.5732 14.0126 13.5732 13.7197 13.2803C13.4268 12.9874 13.4268 12.5126 13.7197 12.2197L15.4393 10.5L4.5 10.5C4.08579 10.5 3.75 10.1642 3.75 9.75C3.75 9.33579 4.08579 9 4.5 9L15.4393 9L13.7197 7.28033C13.4268 6.98744 13.4268 6.51256 13.7197 6.21967Z" fill="#0F172A"/>
</svg>
