<svg width="13" height="13" viewBox="0 0 13 13" fill="none" xmlns="http://www.w3.org/2000/svg">
<path fill-rule="evenodd" clip-rule="evenodd" d="M6.5 0C2.91015 0 0 2.91015 0 6.5C0 10.0899 2.91015 13 6.5 13C10.0899 13 13 10.0899 13 6.5C13 2.91015 10.0899 0 6.5 0ZM5.35355 4.64645C5.15829 4.45118 4.84171 4.45118 4.64645 4.64645C4.45118 4.84171 4.45118 5.15829 4.64645 5.35355L5.79289 6.5L4.64645 7.64645C4.45118 7.84171 4.45118 8.15829 4.64645 8.35355C4.84171 8.54882 5.15829 8.54882 5.35355 8.35355L6.5 7.20711L7.64645 8.35355C7.84171 8.54882 8.15829 8.54882 8.35355 8.35355C8.54882 8.15829 8.54882 7.84171 8.35355 7.64645L7.20711 6.5L8.35355 5.35355C8.54882 5.15829 8.54882 4.84171 8.35355 4.64645C8.15829 4.45118 7.84171 4.45118 7.64645 4.64645L6.5 5.79289L5.35355 4.64645Z" fill="#CC2217"/>
</svg>
