<svg width="72" height="72" viewBox="0 0 72 72" fill="none" xmlns="http://www.w3.org/2000/svg">
<path fill-rule="evenodd" clip-rule="evenodd" d="M0 35.75C0 16.0058 16.0058 0 35.75 0C55.4942 0 71.5 16.0058 71.5 35.75C71.5 55.4942 55.4942 71.5 35.75 71.5C16.0058 71.5 0 55.4942 0 35.75ZM48.9878 29.0984C49.8705 27.8625 49.5843 26.145 48.3484 25.2622C47.1125 24.3795 45.395 24.6657 44.5122 25.9016L32.6491 42.51L26.6945 36.5555C25.6206 35.4815 23.8794 35.4815 22.8055 36.5555C21.7315 37.6294 21.7315 39.3706 22.8055 40.4445L31.0555 48.6945C31.6271 49.2661 32.4212 49.5573 33.2268 49.4906C34.0324 49.424 34.7679 49.0062 35.2378 48.3484L48.9878 29.0984Z" fill="#00ED5F"/>
</svg>
